<svg id="visual" viewBox="0 0 900 600" width="900" height="600" xmlns="http://www.w3.org/2000/svg" xmlns:xlink="http://www.w3.org/1999/xlink" version="1.1"><path d="M0 31L21.5 35C43 39 86 47 128.8 50C171.7 53 214.3 51 257.2 50C300 49 343 49 385.8 48C428.7 47 471.3 45 514.2 44C557 43 600 43 642.8 44C685.7 45 728.3 47 771.2 47C814 47 857 45 878.5 44L900 43L900 0L878.5 0C857 0 814 0 771.2 0C728.3 0 685.7 0 642.8 0C600 0 557 0 514.2 0C471.3 0 428.7 0 385.8 0C343 0 300 0 257.2 0C214.3 0 171.7 0 128.8 0C86 0 43 0 21.5 0L0 0Z" fill="#4698ce"></path><path d="M0 115L21.5 118C43 121 86 127 128.8 125C171.7 123 214.3 113 257.2 110C300 107 343 111 385.8 111C428.7 111 471.3 107 514.2 103C557 99 600 95 642.8 100C685.7 105 728.3 119 771.2 120C814 121 857 109 878.5 103L900 97L900 41L878.5 42C857 43 814 45 771.2 45C728.3 45 685.7 43 642.8 42C600 41 557 41 514.2 42C471.3 43 428.7 45 385.8 46C343 47 300 47 257.2 48C214.3 49 171.7 51 128.8 48C86 45 43 37 21.5 33L0 29Z" fill="#388ec7"></path><path d="M0 241L21.5 246C43 251 86 261 128.8 262C171.7 263 214.3 255 257.2 256C300 257 343 267 385.8 266C428.7 265 471.3 253 514.2 242C557 231 600 221 642.8 219C685.7 217 728.3 223 771.2 235C814 247 857 265 878.5 274L900 283L900 95L878.5 101C857 107 814 119 771.2 118C728.3 117 685.7 103 642.8 98C600 93 557 97 514.2 101C471.3 105 428.7 109 385.8 109C343 109 300 105 257.2 108C214.3 111 171.7 121 128.8 123C86 125 43 119 21.5 116L0 113Z" fill="#2885c0"></path><path d="M0 337L21.5 335C43 333 86 329 128.8 331C171.7 333 214.3 341 257.2 346C300 351 343 353 385.8 351C428.7 349 471.3 343 514.2 330C557 317 600 297 642.8 295C685.7 293 728.3 309 771.2 327C814 345 857 365 878.5 375L900 385L900 281L878.5 272C857 263 814 245 771.2 233C728.3 221 685.7 215 642.8 217C600 219 557 229 514.2 240C471.3 251 428.7 263 385.8 264C343 265 300 255 257.2 254C214.3 253 171.7 261 128.8 260C86 259 43 249 21.5 244L0 239Z" fill="#137cb9"></path><path d="M0 373L21.5 372C43 371 86 369 128.8 375C171.7 381 214.3 395 257.2 403C300 411 343 413 385.8 407C428.7 401 471.3 387 514.2 371C557 355 600 337 642.8 337C685.7 337 728.3 355 771.2 372C814 389 857 405 878.5 413L900 421L900 383L878.5 373C857 363 814 343 771.2 325C728.3 307 685.7 291 642.8 293C600 295 557 315 514.2 328C471.3 341 428.7 347 385.8 349C343 351 300 349 257.2 344C214.3 339 171.7 331 128.8 329C86 327 43 331 21.5 333L0 335Z" fill="#0073af"></path><path d="M0 415L21.5 414C43 413 86 411 128.8 416C171.7 421 214.3 433 257.2 441C300 449 343 453 385.8 447C428.7 441 471.3 425 514.2 408C557 391 600 373 642.8 373C685.7 373 728.3 391 771.2 407C814 423 857 437 878.5 444L900 451L900 419L878.5 411C857 403 814 387 771.2 370C728.3 353 685.7 335 642.8 335C600 335 557 353 514.2 369C471.3 385 428.7 399 385.8 405C343 411 300 409 257.2 401C214.3 393 171.7 379 128.8 373C86 367 43 369 21.5 370L0 371Z" fill="#006aa1"></path><path d="M0 475L21.5 472C43 469 86 463 128.8 467C171.7 471 214.3 485 257.2 494C300 503 343 507 385.8 504C428.7 501 471.3 491 514.2 476C557 461 600 441 642.8 437C685.7 433 728.3 445 771.2 458C814 471 857 485 878.5 492L900 499L900 449L878.5 442C857 435 814 421 771.2 405C728.3 389 685.7 371 642.8 371C600 371 557 389 514.2 406C471.3 423 428.7 439 385.8 445C343 451 300 447 257.2 439C214.3 431 171.7 419 128.8 414C86 409 43 411 21.5 412L0 413Z" fill="#006193"></path><path d="M0 601L21.5 601C43 601 86 601 128.8 601C171.7 601 214.3 601 257.2 601C300 601 343 601 385.8 601C428.7 601 471.3 601 514.2 601C557 601 600 601 642.8 601C685.7 601 728.3 601 771.2 601C814 601 857 601 878.5 601L900 601L900 497L878.5 490C857 483 814 469 771.2 456C728.3 443 685.7 431 642.8 435C600 439 557 459 514.2 474C471.3 489 428.7 499 385.8 502C343 505 300 501 257.2 492C214.3 483 171.7 469 128.8 465C86 461 43 467 21.5 470L0 473Z" fill="#005885"></path></svg>